<?xml version="1.0" encoding="UTF-8" standalone="no"?><!DOCTYPE svg PUBLIC "-//W3C//DTD SVG 1.1//EN" "http://www.w3.org/Graphics/SVG/1.1/DTD/svg11.dtd"><svg width="100%" height="100%" viewBox="0 0 240 240" version="1.1" xmlns="http://www.w3.org/2000/svg" xmlns:xlink="http://www.w3.org/1999/xlink" xml:space="preserve" xmlns:serif="http://www.serif.com/" style="fill-rule:evenodd;clip-rule:evenodd;stroke-linejoin:round;stroke-miterlimit:2;"><g><g><path d="M119.89,16.753c-57.923,0 -105.065,47.165 -105.065,105.065c0,57.9 47.165,105.065 105.065,105.065c57.9,0 105.065,-47.165 105.065,-105.065c0,-57.9 -47.165,-105.065 -105.065,-105.065Zm-0.156,9.335c3.712,0.096 6.714,3.187 6.712,6.912c-0,3.792 -3.12,6.912 -6.912,6.912c-3.792,0 -6.912,-3.12 -6.912,-6.912c-0,-0.001 -0,-0.002 -0,-0.003c0,-3.792 3.12,-6.912 6.912,-6.912c0.067,0 0.133,0.001 0.2,0.003Zm15.825,11.38c24.547,4.598 45.864,19.78 58.234,41.475l-137.271,-14.625c12.476,-13.937 29.207,-23.377 47.587,-26.85l10.647,11.158c2.4,2.512 6.379,2.623 8.891,0.2l11.913,-11.358Zm-84.128,134.093l134.827,3.201c-2.404,3.22 -2.9,3.064 -5.734,5.912l-14.603,-3.134c-3.401,-0.733 -6.757,1.445 -7.49,4.845l-3.467,16.181c-22.55,10.215 -48.472,10.093 -70.925,-0.333l-3.467,-16.181c-0.733,-3.401 -4.067,-5.579 -7.468,-4.845l-14.292,3.067c-2.652,-2.736 -5.117,-5.647 -7.379,-8.713Zm17.114,14.403c3.716,0.108 6.714,3.195 6.712,6.912c-0,3.792 -3.12,6.912 -6.912,6.912c-3.792,0 -6.912,-3.12 -6.912,-6.912c-0,-0.001 -0,-0.002 -0,-0.003c0,-3.792 3.12,-6.912 6.912,-6.912c0.067,0 0.133,0.001 0.2,0.003Zm102.353,0.311c3.716,0.108 6.714,3.195 6.712,6.912c-0,3.792 -3.12,6.912 -6.912,6.912c-3.792,0 -6.912,-3.12 -6.912,-6.912c-0,-0.001 -0,-0.002 -0,-0.003c0,-3.792 3.12,-6.912 6.912,-6.912c0.067,0 0.133,0.001 0.2,0.003Z" style="fill:#4e2628;fill-rule:nonzero;stroke:#4e2628;stroke-width:0.24px;"/><path d="M219.087,121.818c0,54.418 -44.779,99.197 -99.197,99.197c-54.418,0 -99.197,-44.779 -99.197,-99.197c-0,-54.418 44.779,-99.197 99.197,-99.197c54.418,-0 99.197,44.779 99.197,99.197Zm-1.867,-9.58l15.47,9.58l-15.47,9.58l13.292,12.425l-17.026,6.379l10.624,14.781l-17.981,2.934l7.557,16.581l-18.204,-0.645l4.179,17.737l-17.737,-4.179l0.645,18.204l-16.581,-7.557l-2.934,17.981l-14.781,-10.624l-6.379,17.026l-12.425,-13.292l-9.58,15.47l-9.58,-15.47l-12.425,13.292l-6.379,-17.026l-14.781,10.624l-2.934,-17.981l-16.581,7.557l0.645,-18.204l-17.737,4.179l4.179,-17.737l-18.204,0.645l7.557,-16.581l-17.981,-2.934l10.624,-14.781l-17.026,-6.379l13.292,-12.425l-15.47,-9.58l15.47,-9.58l-13.292,-12.425l17.026,-6.379l-10.624,-14.781l17.981,-2.934l-7.557,-16.581l18.204,0.645l-4.179,-17.737l17.737,4.179l-0.645,-18.204l16.581,7.557l2.934,-17.981l14.781,10.624l6.379,-17.026l12.425,13.292l9.58,-15.47l9.58,15.47l12.425,-13.292l6.379,17.026l14.781,-10.624l2.934,17.981l16.581,-7.557l-0.645,18.204l17.737,-4.179l-4.179,17.737l18.204,-0.645l-7.557,16.581l17.981,2.934l-10.624,14.781l17.026,6.379l-13.292,12.425Z" style="fill:#4e2628;stroke:#4e2628;stroke-width:6.67px;stroke-linecap:round;stroke-miterlimit:4;"/></g><g><path d="M24.87,153.503l0,-66.991l190.261,-0l-0,13.604l-171.439,0l0,9.349l19.825,0l0,18.986l-19.825,0l0,25.052l-18.822,0Z" style="fill:#fff;fill-rule:nonzero;"/><rect x="73.407" y="86.513" width="15.786" height="66.991" style="fill:#fff;fill-rule:nonzero;"/><path d="M103.828,153.503l0,-66.991l26.714,-0l-0,53.752l13.422,0l0,13.239l-40.137,0Z" style="fill:#fff;fill-rule:nonzero;"/><path d="M153.823,153.503l0,-66.991l28.028,-0.016l-0.176,13.579l13.073,0.041l0.202,-13.604l20.173,0l0,66.991l-13.199,-0l-0,-56.96l-17.578,0l17.578,56.96l-14.149,0l-17.578,-56.96l-2.412,0l0,56.96l-13.962,0Z" style="fill:#fff;fill-rule:nonzero;"/></g></g></svg>